# xmcd CD database file
#
# Track frame offsets:
#	150
#	6999
#	25468
#	41444
#	58169
#	73566
#	86433
#	100361
#	121976
#	138188
#
# Disc length: 2011 seconds
#
# Revision: 0
# Processed by: cddbd v1.5.2PL0 Copyright (c) Steve Scherf et al.
# Submitted via: CDex 1.51
#
DISCID=8307d90a
DTITLE=Eliza Lumley - She Talks In Maths: Interpretations of Radiohead
DYEAR=2008
DGENRE=Jazz
TTITLE0=High and Dry
TTITLE1=Black Star
TTITLE2=Street Spirit
TTITLE3=Let Down
TTITLE4=No Surprises
TTITLE5=Karma Police
TTITLE6=Lucky
TTITLE7=How to Disappear Completely
TTITLE8=Creep
TTITLE9=Bullet Proof.. I Wish I Was
EXTD=YEAR: 2008
EXTT0=
EXTT1=
EXTT2=
EXTT3=
EXTT4=
EXTT5=
EXTT6=
EXTT7=
EXTT8=
EXTT9=
PLAYORDER=
